<svg width="375" height="375" viewBox="0 0 375 375" fill="none" xmlns="http://www.w3.org/2000/svg">
<rect width="375" height="375" rx="187.5" fill="#F7F0E6"/>
<path d="M80.6658 183.408C84.5018 181.855 88.1095 180.348 91.4888 178.887C94.8682 177.426 98.3845 175.964 102.038 174.503C104.504 170.667 107.061 167.288 109.71 164.365C112.45 161.351 115.19 158.885 117.93 156.967C119.391 155.962 120.852 155.186 122.314 154.638C123.775 154.09 125.145 153.77 126.424 153.679C127.52 153.588 128.616 153.816 129.712 154.364C130.808 154.821 131.264 155.825 131.082 157.378C130.99 158.474 130.442 159.661 129.438 160.94C128.524 162.219 127.291 163.497 125.739 164.776C124.277 166.055 122.496 167.288 120.396 168.475C118.386 169.662 116.24 170.713 113.957 171.626C113.5 171.809 112.906 172.083 112.176 172.448C111.445 172.722 110.806 172.95 110.258 173.133C108.979 175.508 107.746 177.837 106.559 180.12C105.463 182.403 104.367 184.595 103.271 186.696C100.622 191.811 97.6538 196.195 94.3658 199.848C91.1692 203.501 87.6528 206.515 83.8168 208.89C80.0722 211.265 76.0992 213.046 71.8978 214.233C67.7878 215.512 63.4952 216.288 59.0198 216.562C55.3665 216.745 51.4848 216.516 47.3748 215.877C43.2648 215.329 39.7028 214.005 36.6888 211.904C34.1315 214.187 31.8482 216.425 29.8388 218.617C27.9208 220.809 26.5508 222.818 25.7288 224.645C25.2722 225.558 24.9068 225.969 24.6328 225.878C24.4502 225.787 24.4045 225.513 24.4958 225.056C24.4958 224.691 24.5415 224.417 24.6328 224.234C25.3635 222.225 26.5965 220.033 28.3318 217.658C30.1585 215.283 32.3505 212.909 34.9078 210.534C33.4465 209.255 32.1678 207.52 31.0718 205.328C30.0672 203.136 29.6562 200.579 29.8388 197.656C30.1128 194.277 31.2545 191.308 33.2638 188.751C35.3645 186.194 37.8305 184.047 40.6618 182.312C43.5845 180.485 46.6442 179.115 49.8408 178.202C53.0375 177.197 55.9145 176.604 58.4718 176.421C60.2985 176.238 62.2622 176.238 64.3628 176.421C66.5548 176.512 68.7012 176.832 70.8018 177.38C72.9025 177.928 74.8205 178.704 76.5558 179.709C78.2912 180.714 79.6612 181.947 80.6658 183.408ZM111.08 171.215C111.445 171.032 111.856 170.895 112.313 170.804C112.769 170.621 113.18 170.439 113.546 170.256C115.464 169.434 117.336 168.521 119.163 167.516C120.989 166.511 122.633 165.461 124.095 164.365C125.647 163.178 126.88 161.99 127.794 160.803C128.798 159.616 129.392 158.474 129.575 157.378C129.757 156.373 129.483 155.688 128.753 155.323C128.113 154.866 127.337 154.729 126.424 154.912C124.506 155.186 122.405 156.465 120.122 158.748C118.843 159.935 117.336 161.716 115.601 164.091C113.957 166.466 112.45 168.84 111.08 171.215ZM62.3078 203.41C60.6638 203.41 58.8828 203.182 56.9648 202.725C55.1382 202.268 53.4485 201.538 51.8958 200.533C50.4345 201.538 49.0188 202.497 47.6488 203.41C46.3702 204.323 45.0458 205.282 43.6758 206.287C42.8538 206.926 42.0775 207.52 41.3468 208.068C40.6162 208.616 39.8855 209.21 39.1548 209.849C41.7122 212.315 44.9545 213.913 48.8818 214.644C52.8092 215.375 56.5995 215.603 60.2528 215.329C67.5595 214.69 73.9528 212.041 79.4328 207.383C85.0042 202.634 90.2558 195.692 95.1878 186.559C96.1925 184.732 97.1972 182.997 98.2018 181.353C99.2065 179.709 100.211 178.111 101.216 176.558V176.421C97.8365 177.791 94.5485 179.161 91.3518 180.531C88.2465 181.901 85.0042 183.362 81.6248 184.915C82.1728 186.194 82.4468 187.609 82.4468 189.162C82.3555 191.445 81.6705 193.5 80.3918 195.327C79.1132 197.062 77.5148 198.524 75.5968 199.711C73.6788 200.898 71.5325 201.812 69.1578 202.451C66.7832 203.09 64.4998 203.41 62.3078 203.41ZM62.0338 202.04C63.9518 202.04 65.8698 201.766 67.7878 201.218C69.7972 200.579 71.6238 199.711 73.2678 198.615C75.0032 197.519 76.4188 196.195 77.5148 194.642C78.6108 192.998 79.2045 191.217 79.2958 189.299C79.2958 188.112 79.1588 187.016 78.8848 186.011C77.4235 186.742 75.9165 187.472 74.3638 188.203C72.9025 188.842 71.3498 189.527 69.7058 190.258C67.4225 191.354 64.8195 192.724 61.8968 194.368C58.9742 195.921 56.0058 197.702 52.9918 199.711C54.5445 200.533 56.0972 201.127 57.6498 201.492C59.2938 201.857 60.7552 202.04 62.0338 202.04ZM78.4738 184.504C77.6518 182.951 76.4645 181.718 74.9118 180.805C73.3592 179.8 71.6238 179.07 69.7058 178.613C67.8792 178.065 65.9612 177.745 63.9518 177.654C61.9425 177.471 60.1158 177.471 58.4718 177.654C56.0972 177.837 53.5398 178.385 50.7998 179.298C48.1512 180.12 45.6395 181.307 43.2648 182.86C40.9815 184.413 39.0178 186.376 37.3738 188.751C35.8212 191.126 34.9078 193.911 34.6338 197.108C34.4512 199.483 34.6338 201.629 35.1818 203.547C35.8212 205.374 36.6432 206.881 37.6478 208.068C38.8352 206.881 40.2508 205.693 41.8948 204.506C43.1735 203.501 44.4065 202.588 45.5938 201.766C46.8725 200.944 48.2882 200.031 49.8408 199.026C48.1968 197.565 47.2378 195.829 46.9638 193.82C46.7812 192.907 46.9182 192.45 47.3748 192.45C47.4662 192.45 47.6032 192.815 47.7858 193.546C48.0598 194.551 48.4708 195.418 49.0188 196.149C49.6582 196.88 50.3432 197.565 51.0738 198.204C53.9965 196.377 57.0105 194.688 60.1158 193.135C63.3125 191.491 66.4178 189.984 69.4318 188.614L78.4738 184.504ZM105.863 213.959C104.493 213.959 103.488 213.548 102.849 212.726C102.301 211.904 102.118 210.899 102.301 209.712C102.484 208.525 103.032 207.109 103.945 205.465C104.858 203.821 106 202.177 107.37 200.533C108.375 199.254 109.608 197.93 111.069 196.56C112.53 195.099 113.992 193.729 115.453 192.45C114.448 192.907 113.261 193.637 111.891 194.642C110.521 195.555 109.334 196.423 108.329 197.245C106.228 198.889 104.402 200.442 102.849 201.903C101.753 202.908 101.068 203.273 100.794 202.999C100.52 202.725 101.114 201.903 102.575 200.533C102.94 200.168 103.488 199.665 104.219 199.026C104.95 198.387 105.772 197.702 106.685 196.971C107.598 196.24 108.512 195.51 109.425 194.779C110.43 194.048 111.343 193.409 112.165 192.861C113.9 191.674 115.362 190.897 116.549 190.532C117.736 190.075 119.243 189.847 121.07 189.847C122.531 189.847 123.353 189.984 123.536 190.258C123.81 190.532 123.49 191.126 122.577 192.039C121.298 193.318 119.928 194.688 118.467 196.149C117.097 197.61 115.727 199.163 114.357 200.807C111.891 203.821 110.338 206.196 109.699 207.931C109.242 209.027 109.242 209.803 109.699 210.26C110.064 210.625 110.521 210.762 111.069 210.671C111.708 210.488 112.393 210.214 113.124 209.849C113.946 209.392 114.951 208.753 116.138 207.931C117.417 207.109 119.106 205.876 121.207 204.232C122.668 203.045 123.993 201.994 125.18 201.081C126.367 200.076 127.509 199.117 128.605 198.204C129.701 197.291 130.751 196.423 131.756 195.601C132.761 194.688 133.857 193.729 135.044 192.724C135.683 192.267 136.323 191.856 136.962 191.491C137.601 191.034 138.423 190.806 139.428 190.806C140.707 190.806 141.574 190.943 142.031 191.217C142.488 191.4 142.305 191.993 141.483 192.998C140.844 193.729 140.296 194.368 139.839 194.916C139.382 195.464 138.926 196.058 138.469 196.697C138.012 197.245 137.51 197.839 136.962 198.478C136.505 199.117 135.957 199.848 135.318 200.67C134.222 202.223 133.309 203.547 132.578 204.643C131.847 205.739 131.254 206.744 130.797 207.657C130.523 208.205 130.34 208.844 130.249 209.575C130.158 210.306 130.34 210.854 130.797 211.219C131.254 211.493 131.802 211.584 132.441 211.493C133.08 211.402 133.811 211.219 134.633 210.945C135.82 210.488 137.145 209.849 138.606 209.027C140.159 208.114 141.483 207.292 142.579 206.561C144.223 205.374 145.547 204.232 146.552 203.136C146.552 201.675 146.917 200.168 147.648 198.615C148.379 196.971 149.109 195.647 149.84 194.642C152.489 190.897 154.681 189.208 156.416 189.573C157.147 189.756 157.558 190.349 157.649 191.354C157.74 192.359 157.466 193.409 156.827 194.505C156.096 195.784 155 197.245 153.539 198.889C152.078 200.533 150.297 202.223 148.196 203.958C148.561 204.871 149.475 205.419 150.936 205.602C151.849 205.693 152.9 205.511 154.087 205.054C155.366 204.597 156.599 203.958 157.786 203.136C158.425 202.679 159.11 202.177 159.841 201.629C160.572 200.99 161.028 200.579 161.211 200.396C161.576 200.031 161.896 199.757 162.17 199.574C162.535 199.3 162.809 199.254 162.992 199.437C163.266 199.711 162.855 200.396 161.759 201.492C161.394 201.857 160.983 202.223 160.526 202.588C160.069 202.953 159.339 203.501 158.334 204.232C157.147 205.054 155.868 205.739 154.498 206.287C153.128 206.744 151.895 206.926 150.799 206.835C148.972 206.835 147.739 206.196 147.1 204.917C146.552 205.374 145.958 205.83 145.319 206.287C144.68 206.744 144.132 207.155 143.675 207.52C141.026 209.347 138.378 210.899 135.729 212.178C133.08 213.365 130.569 213.959 128.194 213.959C126.459 213.959 125.226 213.594 124.495 212.863C123.764 212.041 123.399 211.082 123.399 209.986C123.399 208.616 123.993 206.972 125.18 205.054C125.728 204.141 126.413 203.136 127.235 202.04C128.148 200.944 129.107 199.848 130.112 198.752L129.975 198.615C128.514 199.894 126.824 201.309 124.906 202.862C122.988 204.415 121.253 205.83 119.7 207.109C118.878 207.84 117.873 208.616 116.686 209.438C115.59 210.169 114.448 210.899 113.261 211.63C112.074 212.269 110.841 212.817 109.562 213.274C108.283 213.731 107.096 213.959 106 213.959H105.863ZM169.398 212.178C170.311 212.178 171.864 211.858 174.056 211.219C176.248 210.58 178.851 209.21 181.865 207.109C183.144 206.196 184.514 205.191 185.975 204.095C187.528 202.908 188.943 201.72 190.222 200.533C190.953 199.894 191.455 199.711 191.729 199.985C192.003 200.35 191.638 200.944 190.633 201.766C189.72 202.588 188.35 203.73 186.523 205.191C184.788 206.652 183.281 207.794 182.002 208.616C176.339 212.361 171.179 214.233 166.521 214.233C161.498 214.233 159.077 212.406 159.26 208.753C159.351 206.196 160.721 203.364 163.37 200.259L163.233 200.122C163.05 200.305 162.639 200.67 162 201.218C161.452 201.766 160.95 202.223 160.493 202.588C159.854 203.136 159.397 203.273 159.123 202.999C158.94 202.816 158.986 202.588 159.26 202.314C159.443 202.04 159.671 201.766 159.945 201.492C160.858 200.67 161.68 199.985 162.411 199.437C163.142 198.798 164.009 198.113 165.014 197.382C165.745 196.834 166.704 196.195 167.891 195.464C169.17 194.733 170.448 194.003 171.727 193.272C173.736 192.267 175.746 191.4 177.755 190.669C179.764 189.847 181.682 189.436 183.509 189.436H183.646C185.199 189.436 186.249 189.847 186.797 190.669C187.436 191.4 187.71 192.222 187.619 193.135C187.436 194.962 186.432 196.56 184.605 197.93C182.87 199.3 180.952 200.487 178.851 201.492C176.842 202.497 174.741 203.364 172.549 204.095C170.448 204.826 168.622 205.419 167.069 205.876C166.521 206.972 166.247 208.022 166.247 209.027C166.247 211.128 167.297 212.178 169.398 212.178ZM167.891 204.369C169.261 204.004 170.768 203.501 172.412 202.862C174.147 202.131 175.746 201.264 177.207 200.259C178.942 199.072 180.267 197.839 181.18 196.56C182.185 195.281 182.733 194.14 182.824 193.135C183.007 191.856 182.459 191.217 181.18 191.217C179.993 191.217 177.983 192.541 175.152 195.19C174.056 196.195 172.777 197.656 171.316 199.574C169.855 201.401 168.713 202.999 167.891 204.369ZM198.564 212.178C199.477 212.178 201.03 211.858 203.222 211.219C205.414 210.58 208.017 209.21 211.031 207.109C212.31 206.196 213.68 205.191 215.141 204.095C216.694 202.908 218.109 201.72 219.388 200.533C220.119 199.894 220.621 199.711 220.895 199.985C221.169 200.35 220.804 200.944 219.799 201.766C218.886 202.588 217.516 203.73 215.689 205.191C213.954 206.652 212.447 207.794 211.168 208.616C205.505 212.361 200.345 214.233 195.687 214.233C190.664 214.233 188.243 212.406 188.426 208.753C188.517 206.196 189.887 203.364 192.536 200.259L192.399 200.122C192.216 200.305 191.805 200.67 191.166 201.218C190.618 201.766 190.116 202.223 189.659 202.588C189.02 203.136 188.563 203.273 188.289 202.999C188.106 202.816 188.152 202.588 188.426 202.314C188.609 202.04 188.837 201.766 189.111 201.492C190.024 200.67 190.846 199.985 191.577 199.437C192.308 198.798 193.175 198.113 194.18 197.382C194.911 196.834 195.87 196.195 197.057 195.464C198.336 194.733 199.614 194.003 200.893 193.272C202.902 192.267 204.912 191.4 206.921 190.669C208.93 189.847 210.848 189.436 212.675 189.436H212.812C214.365 189.436 215.415 189.847 215.963 190.669C216.602 191.4 216.876 192.222 216.785 193.135C216.602 194.962 215.598 196.56 213.771 197.93C212.036 199.3 210.118 200.487 208.017 201.492C206.008 202.497 203.907 203.364 201.715 204.095C199.614 204.826 197.788 205.419 196.235 205.876C195.687 206.972 195.413 208.022 195.413 209.027C195.413 211.128 196.463 212.178 198.564 212.178ZM197.057 204.369C198.427 204.004 199.934 203.501 201.578 202.862C203.313 202.131 204.912 201.264 206.373 200.259C208.108 199.072 209.433 197.839 210.346 196.56C211.351 195.281 211.899 194.14 211.99 193.135C212.173 191.856 211.625 191.217 210.346 191.217C209.159 191.217 207.149 192.541 204.318 195.19C203.222 196.195 201.943 197.656 200.482 199.574C199.021 201.401 197.879 202.999 197.057 204.369ZM225.675 196.56C224.579 197.473 223.574 198.341 222.661 199.163C221.839 199.894 221.017 200.624 220.195 201.355C219.373 202.086 218.825 202.314 218.551 202.04C218.277 201.766 218.597 201.218 219.51 200.396C221.337 198.752 223.118 197.154 224.853 195.601C226.68 194.048 228.232 192.678 229.511 191.491C228.598 191.491 227.73 191.537 226.908 191.628C226.177 191.628 225.401 191.628 224.579 191.628C223.483 191.628 222.981 191.4 223.072 190.943C223.163 190.578 224.396 190.304 226.771 190.121C227.684 190.03 228.461 189.984 229.1 189.984C229.831 189.984 230.333 189.984 230.607 189.984C232.708 187.335 234.991 184.687 237.457 182.038C239.923 179.389 241.932 177.289 243.485 175.736C244.764 174.457 246.134 173.224 247.595 172.037C249.148 170.758 250.655 170.119 252.116 170.119C253.303 170.119 253.988 170.393 254.171 170.941C253.349 171.672 252.116 172.905 250.472 174.64C248.919 176.284 247.367 178.019 245.814 179.846C244.261 181.673 242.8 183.362 241.43 184.915C240.151 186.468 238.827 188.157 237.457 189.984C239.01 189.893 240.425 189.847 241.704 189.847C242.983 189.847 244.17 189.847 245.266 189.847C245.814 189.847 246.271 189.893 246.636 189.984C247.093 190.075 247.275 190.304 247.184 190.669C247.093 191.126 246.773 191.354 246.225 191.354C245.768 191.354 245.266 191.354 244.718 191.354C243.165 191.354 241.75 191.354 240.471 191.354C239.284 191.354 237.914 191.4 236.361 191.491C235.63 192.313 234.808 193.363 233.895 194.642C233.073 195.829 232.205 197.108 231.292 198.478C230.379 199.848 229.511 201.264 228.689 202.725C227.867 204.095 227.136 205.374 226.497 206.561C226.04 207.292 225.766 208.068 225.675 208.89C225.584 209.712 225.812 210.26 226.36 210.534C226.817 210.717 227.365 210.762 228.004 210.671C228.643 210.488 229.237 210.26 229.785 209.986C230.607 209.529 231.566 208.981 232.662 208.342C233.758 207.611 234.854 206.789 235.95 205.876C237.229 204.871 238.416 203.912 239.512 202.999C240.608 201.994 241.567 201.127 242.389 200.396C242.754 200.122 243.12 199.848 243.485 199.574C243.85 199.3 244.124 199.254 244.307 199.437C244.49 199.711 244.17 200.259 243.348 201.081C242.983 201.446 242.48 201.949 241.841 202.588C241.202 203.136 240.471 203.775 239.649 204.506C238.918 205.145 238.142 205.83 237.32 206.561C236.498 207.2 235.722 207.794 234.991 208.342C233.712 209.347 231.931 210.534 229.648 211.904C227.456 213.274 225.036 213.959 222.387 213.959C220.834 213.959 219.738 213.594 219.099 212.863C218.46 212.041 218.186 211.128 218.277 210.123C218.46 208.388 219.236 206.378 220.606 204.095C221.976 201.72 223.666 199.209 225.675 196.56ZM287.916 182.586C286.546 183.499 285.039 184.458 283.395 185.463C281.842 186.376 280.335 187.198 278.874 187.929C277.321 188.66 275.86 189.162 274.49 189.436C273.12 189.71 272.389 189.71 272.298 189.436C272.298 189.345 272.343 189.253 272.435 189.162C272.526 189.071 272.754 188.934 273.12 188.751C273.576 188.568 274.261 188.294 275.175 187.929C276.088 187.472 277.321 186.833 278.874 186.011C280.974 184.915 283.029 183.819 285.039 182.723C287.139 181.536 289.057 180.348 290.793 179.161C291.523 178.704 292.482 178.156 293.67 177.517C294.857 176.878 295.77 176.558 296.41 176.558C296.866 176.558 297.049 176.786 296.958 177.243C296.958 177.7 296.455 178.476 295.451 179.572C291.067 184.869 287.185 189.756 283.806 194.231C280.426 198.615 277.138 203.09 273.942 207.657C273.12 208.844 272.435 209.803 271.887 210.534C271.339 211.173 270.745 211.721 270.106 212.178C269.466 212.543 268.69 212.863 267.777 213.137C266.863 213.411 265.63 213.685 264.078 213.959C263.438 214.05 262.936 214.096 262.571 214.096C262.114 214.096 261.886 213.913 261.886 213.548C261.886 213.274 262.114 212.772 262.571 212.041C263.027 211.31 263.758 210.306 264.763 209.027C266.498 206.744 268.553 204.141 270.928 201.218C273.394 198.295 275.768 195.51 278.052 192.861C280.426 190.212 282.527 187.929 284.354 186.011C286.18 184.093 287.368 182.951 287.916 182.586ZM291.686 206.972C291.686 203.775 292.6 200.35 294.426 196.697C296.253 192.952 298.856 189.345 302.235 185.874C304.61 183.408 307.259 181.17 310.181 179.161C313.104 177.06 316.072 175.279 319.086 173.818C322.1 172.265 325.023 171.124 327.854 170.393C330.777 169.571 333.38 169.16 335.663 169.16C337.764 169.16 339.545 169.571 341.006 170.393C342.468 171.215 343.472 172.265 344.02 173.544C344.477 174.549 344.477 175.142 344.02 175.325C343.838 175.416 343.655 175.325 343.472 175.051C343.381 174.777 343.244 174.549 343.061 174.366C342.239 172.996 341.189 172.083 339.91 171.626C338.723 171.078 337.353 170.804 335.8 170.804C331.69 170.804 327.306 172.402 322.648 175.599C318.082 178.796 313.104 183.271 307.715 189.025C306.345 190.486 304.93 192.085 303.468 193.82C302.098 195.555 300.865 197.336 299.769 199.163C298.673 200.898 297.76 202.634 297.029 204.369C296.299 206.104 295.933 207.703 295.933 209.164C295.933 211.813 297.075 213.137 299.358 213.137C301.185 213.046 303.24 211.995 305.523 209.986C307.898 207.885 310.136 205.374 312.236 202.451C314.246 199.62 315.524 197.017 316.072 194.642C316.712 192.267 316.255 190.897 314.702 190.532C313.332 190.349 312.008 190.578 310.729 191.217C309.451 191.765 308.446 192.313 307.715 192.861C307.167 193.226 306.802 193.318 306.619 193.135C306.437 192.861 306.756 192.404 307.578 191.765C308.583 190.943 309.907 190.212 311.551 189.573C313.195 188.934 314.748 188.705 316.209 188.888C317.671 189.071 318.812 189.664 319.634 190.669C320.548 191.674 321.05 192.952 321.141 194.505C321.324 195.966 321.096 197.61 320.456 199.437C319.908 201.264 318.995 203.045 317.716 204.78C315.342 207.977 312.419 210.397 308.948 212.041C305.478 213.594 302.327 214.37 299.495 214.37C296.938 214.37 294.974 213.639 293.604 212.178C292.326 210.717 291.686 209.027 291.686 207.109V206.972Z" fill="#C2837D"/>
</svg>
